<?xml version="1.0" encoding="utf-8"?>
<!-- Generator: Adobe Illustrator 16.0.0, SVG Export Plug-In . SVG Version: 6.00 Build 0)  -->
<!DOCTYPE svg PUBLIC "-//W3C//DTD SVG 1.1//EN" "http://www.w3.org/Graphics/SVG/1.1/DTD/svg11.dtd">
<svg version="1.1" id="Layer_1" xmlns="http://www.w3.org/2000/svg" xmlns:xlink="http://www.w3.org/1999/xlink" x="0px" y="0px"
	 width="320px" height="280px" viewBox="0 0 320 280" enable-background="new 0 0 320 280" xml:space="preserve">
<g id="Group" transform="translate(1044.000000, 760.000000)">
	<path id="Combined-Shape" d="M-824-560c-88.893,0-102.227,0-120,0c-55.229,0-100-44.771-100-100s44.771-100,100-100
		c19.645,0,72.979,0,160,0c11.046,0,20,8.954,20,20s-8.954,20-20,20h-160c-33.137,0-60,26.863-60,60s26.863,60,60,60h120
		c11.046,0,20,8.954,20,20S-812.954-560-824-560z M-984-480c-11.046,0-20-8.954-20-20s8.954-20,20-20h160c33.137,0,60-26.863,60-60
		s-26.863-60-60-60h-120c-11.046,0-20-8.954-20-20s8.954-20,20-20c87.021,0,100.355,0,120,0c55.229,0,100,44.771,100,100
		s-44.771,100-100,100C-841.773-480-895.107-480-984-480z"/>
	<polygon id="Rectangle-10" fill="#39C5F8" points="-884,-640 -844,-640 -844,-540 -864,-560 -884,-540 	"/>
</g>
</svg>
